# Blender 3.4.1
# www.blender.org
mtllib platformGoal.mtl
o Cube.001
v -0.200000 -0.193810 0.200000
v -0.200000 -0.266190 0.200000
v -0.200000 -0.193810 -0.200000
v -0.200000 -0.266190 -0.200000
v 0.200000 -0.193810 0.200000
v 0.200000 -0.266190 0.200000
v 0.200000 -0.193810 -0.200000
v 0.200000 -0.266190 -0.200000
v -0.200000 -0.193810 0.600000
v -0.200000 -0.266190 0.600000
v -0.200000 -0.193810 0.200000
v -0.200000 -0.266190 0.200000
v 0.200000 -0.193810 0.600000
v 0.200000 -0.266190 0.600000
v 0.200000 -0.193810 0.200000
v 0.200000 -0.266190 0.200000
v -0.200000 -0.193810 1.400000
v -0.200000 -0.266190 1.400000
v -0.200000 -0.193810 1.000000
v -0.200000 -0.266190 1.000000
v 0.200000 -0.193810 1.400000
v 0.200000 -0.266190 1.400000
v 0.200000 -0.193810 1.000000
v 0.200000 -0.266190 1.000000
v -0.200000 -0.193810 1.000000
v -0.200000 -0.266190 1.000000
v -0.200000 -0.193810 0.600000
v -0.200000 -0.266190 0.600000
v 0.200000 -0.193810 1.000000
v 0.200000 -0.266190 1.000000
v 0.200000 -0.193810 0.600000
v 0.200000 -0.266190 0.600000
v -0.600000 -0.193810 0.600000
v -0.600000 -0.266190 0.600000
v -0.600000 -0.193810 0.200000
v -0.600000 -0.266190 0.200000
v -0.200000 -0.193810 0.600000
v -0.200000 -0.266190 0.600000
v -0.200000 -0.193810 0.200000
v -0.200000 -0.266190 0.200000
v -1.000000 -0.193810 0.600000
v -1.000000 -0.266190 0.600000
v -1.000000 -0.193810 0.200000
v -1.000000 -0.266190 0.200000
v -0.600000 -0.193810 0.600000
v -0.600000 -0.266190 0.600000
v -0.600000 -0.193810 0.200000
v -0.600000 -0.266190 0.200000
v -1.000000 -0.193810 1.000000
v -1.000000 -0.266190 1.000000
v -1.000000 -0.193810 0.600000
v -1.000000 -0.266190 0.600000
v -0.600000 -0.193810 1.000000
v -0.600000 -0.266190 1.000000
v -0.600000 -0.193810 0.600000
v -0.600000 -0.266190 0.600000
v -1.000000 -0.193810 1.400000
v -1.000000 -0.266190 1.400000
v -1.000000 -0.193810 1.000000
v -1.000000 -0.266190 1.000000
v -0.600000 -0.193810 1.400000
v -0.600000 -0.266190 1.400000
v -0.600000 -0.193810 1.000000
v -0.600000 -0.266190 1.000000
v -1.000000 -0.193810 1.800000
v -1.000000 -0.266190 1.800000
v -1.000000 -0.193810 1.400000
v -1.000000 -0.266190 1.400000
v -0.600000 -0.193810 1.800000
v -0.600000 -0.266190 1.800000
v -0.600000 -0.193810 1.400000
v -0.600000 -0.266190 1.400000
v -0.600000 -0.193810 1.400000
v -0.600000 -0.266190 1.400000
v -0.600000 -0.193810 1.000000
v -0.600000 -0.266190 1.000000
v -0.200000 -0.193810 1.400000
v -0.200000 -0.266190 1.400000
v -0.200000 -0.193810 1.000000
v -0.200000 -0.266190 1.000000
v -1.400000 -0.193810 1.000000
v -1.400000 -0.266190 1.000000
v -1.400000 -0.193810 0.600000
v -1.400000 -0.266190 0.600000
v -1.000000 -0.193810 1.000000
v -1.000000 -0.266190 1.000000
v -1.000000 -0.193810 0.600000
v -1.000000 -0.266190 0.600000
v -0.998047 -0.339575 2.200750
v -0.861803 -0.182888 2.064506
v -0.998047 -0.339575 1.809383
v -0.861803 -0.182888 1.945626
v -0.606679 -0.339575 2.200750
v -0.742923 -0.182888 2.064506
v -0.606679 -0.339575 1.809383
v -0.742923 -0.182888 1.945626
v -0.998047 -0.182888 2.200750
v -0.998047 -0.182888 1.809382
v -0.606679 -0.182888 1.809382
v -0.606679 -0.182888 2.200750
v -0.998047 -0.182888 2.200750
v -0.998047 -0.182888 1.809382
v -0.606679 -0.182888 1.809382
v -0.606679 -0.182888 2.200750
v -0.900205 -0.182888 2.102908
v -0.900205 -0.182888 1.907224
v -0.704521 -0.182888 1.907224
v -0.704521 -0.182888 2.102908
v -0.900205 -0.160869 2.102908
v -0.900205 -0.160869 1.907224
v -0.704521 -0.160869 1.907224
v -0.704521 -0.160869 2.102908
v -0.861803 -0.160869 2.064506
v -0.861803 -0.160869 1.945626
v -0.742923 -0.160869 1.945626
v -0.742923 -0.160869 2.064506
v -0.900205 -0.116871 2.102908
v -0.900205 -0.116871 1.907224
v -0.704521 -0.116871 1.907224
v -0.704521 -0.116871 2.102908
v -0.861803 -0.116871 2.064506
v -0.861803 -0.116871 1.945626
v -0.742923 -0.116871 1.945626
v -0.742923 -0.116871 2.064506
vn -0.0000 1.0000 -0.0000
vn -0.0000 -0.0000 -1.0000
vn 1.0000 -0.0000 -0.0000
vn -0.0000 -1.0000 -0.0000
vn -1.0000 -0.0000 -0.0000
vn -0.0000 -0.0000 1.0000
vn -0.0000 -0.0000 -0.0000
vt 0.625000 0.500000
vt 0.375000 0.500000
vt 0.625000 0.750000
vt 0.375000 0.750000
vt 0.875000 0.500000
vt 0.625000 0.250000
vt 0.125000 0.500000
vt 0.375000 0.250000
vt 0.875000 0.750000
vt 0.625000 1.000000
vt 0.625000 0.000000
vt 0.375000 0.000000
vt 0.375000 1.000000
vt 0.125000 0.750000
vt 0.625000 0.500000
vt 0.375000 0.500000
vt 0.625000 0.750000
vt 0.375000 0.750000
vt 0.875000 0.500000
vt 0.625000 0.250000
vt 0.125000 0.500000
vt 0.375000 0.250000
vt 0.875000 0.750000
vt 0.625000 1.000000
vt 0.625000 0.000000
vt 0.375000 0.000000
vt 0.375000 1.000000
vt 0.125000 0.750000
vt 0.625000 0.500000
vt 0.375000 0.500000
vt 0.625000 0.750000
vt 0.375000 0.750000
vt 0.875000 0.500000
vt 0.625000 0.250000
vt 0.125000 0.500000
vt 0.375000 0.250000
vt 0.875000 0.750000
vt 0.625000 1.000000
vt 0.625000 0.000000
vt 0.375000 0.000000
vt 0.375000 1.000000
vt 0.125000 0.750000
vt 0.625000 0.500000
vt 0.375000 0.500000
vt 0.625000 0.750000
vt 0.375000 0.750000
vt 0.875000 0.500000
vt 0.625000 0.250000
vt 0.125000 0.500000
vt 0.375000 0.250000
vt 0.875000 0.750000
vt 0.625000 1.000000
vt 0.625000 0.000000
vt 0.375000 0.000000
vt 0.375000 1.000000
vt 0.125000 0.750000
vt 0.625000 0.500000
vt 0.375000 0.500000
vt 0.625000 0.750000
vt 0.375000 0.750000
vt 0.875000 0.500000
vt 0.625000 0.250000
vt 0.125000 0.500000
vt 0.375000 0.250000
vt 0.875000 0.750000
vt 0.625000 1.000000
vt 0.625000 0.000000
vt 0.375000 0.000000
vt 0.375000 1.000000
vt 0.125000 0.750000
vt 0.625000 0.500000
vt 0.375000 0.500000
vt 0.625000 0.750000
vt 0.375000 0.750000
vt 0.875000 0.500000
vt 0.625000 0.250000
vt 0.125000 0.500000
vt 0.375000 0.250000
vt 0.875000 0.750000
vt 0.625000 1.000000
vt 0.625000 0.000000
vt 0.375000 0.000000
vt 0.375000 1.000000
vt 0.125000 0.750000
vt 0.625000 0.500000
vt 0.375000 0.500000
vt 0.625000 0.750000
vt 0.375000 0.750000
vt 0.875000 0.500000
vt 0.625000 0.250000
vt 0.125000 0.500000
vt 0.375000 0.250000
vt 0.875000 0.750000
vt 0.625000 1.000000
vt 0.625000 0.000000
vt 0.375000 0.000000
vt 0.375000 1.000000
vt 0.125000 0.750000
vt 0.625000 0.500000
vt 0.375000 0.500000
vt 0.625000 0.750000
vt 0.375000 0.750000
vt 0.875000 0.500000
vt 0.625000 0.250000
vt 0.125000 0.500000
vt 0.375000 0.250000
vt 0.875000 0.750000
vt 0.625000 1.000000
vt 0.625000 0.000000
vt 0.375000 0.000000
vt 0.375000 1.000000
vt 0.125000 0.750000
vt 0.625000 0.500000
vt 0.375000 0.500000
vt 0.625000 0.750000
vt 0.375000 0.750000
vt 0.875000 0.500000
vt 0.625000 0.250000
vt 0.125000 0.500000
vt 0.375000 0.250000
vt 0.875000 0.750000
vt 0.625000 1.000000
vt 0.625000 0.000000
vt 0.375000 0.000000
vt 0.375000 1.000000
vt 0.125000 0.750000
vt 0.625000 0.500000
vt 0.375000 0.500000
vt 0.625000 0.750000
vt 0.375000 0.750000
vt 0.875000 0.500000
vt 0.625000 0.250000
vt 0.125000 0.500000
vt 0.375000 0.250000
vt 0.875000 0.750000
vt 0.625000 1.000000
vt 0.625000 0.000000
vt 0.375000 0.000000
vt 0.375000 1.000000
vt 0.125000 0.750000
vt 0.625000 0.500000
vt 0.375000 0.500000
vt 0.625000 0.750000
vt 0.375000 0.750000
vt 0.875000 0.500000
vt 0.625000 0.250000
vt 0.125000 0.500000
vt 0.375000 0.250000
vt 0.875000 0.750000
vt 0.625000 1.000000
vt 0.625000 0.000000
vt 0.375000 0.000000
vt 0.375000 1.000000
vt 0.125000 0.750000
vt 0.375000 0.000000
vt 0.375000 1.000000
vt 0.125000 0.750000
vt 0.787970 0.662970
vt 0.125000 0.500000
vt 0.375000 0.250000
vt 0.787970 0.587030
vt 0.375000 0.750000
vt 0.712030 0.662970
vt 0.375000 0.500000
vt 0.712030 0.587030
vt 0.625000 0.000000
vt 0.625000 1.000000
vt 0.875000 0.750000
vt 0.625000 0.250000
vt 0.875000 0.500000
vt 0.625000 0.500000
vt 0.625000 0.750000
vt 0.875000 0.750000
vt 0.875000 0.500000
vt 0.625000 0.500000
vt 0.625000 0.750000
vt 0.812500 0.687500
vt 0.812500 0.562500
vt 0.687500 0.562500
vt 0.687500 0.687500
vt 0.812500 0.687500
vt 0.812500 0.562500
vt 0.687500 0.562500
vt 0.687500 0.687500
vt 0.787970 0.662970
vt 0.787970 0.587030
vt 0.712030 0.587030
vt 0.712030 0.662970
vt 0.812500 0.687500
vt 0.812500 0.562500
vt 0.687500 0.562500
vt 0.687500 0.687500
vt 0.787970 0.662970
vt 0.787970 0.587030
vt 0.712030 0.587030
vt 0.712030 0.662970
s 0
usemtl Material.001
f 5/5/1 3/3/1 1/1/1
f 3/3/2 8/13/2 4/4/2
f 7/11/3 6/8/3 8/12/3
f 2/2/4 8/14/4 6/7/4
f 1/1/5 4/4/5 2/2/5
f 5/6/6 2/2/6 6/8/6
f 5/5/1 7/9/1 3/3/1
f 3/3/2 7/10/2 8/13/2
f 7/11/3 5/6/3 6/8/3
f 2/2/4 4/4/4 8/14/4
f 1/1/5 3/3/5 4/4/5
f 5/6/6 1/1/6 2/2/6
f 97/166/5 91/160/5 89/155/5
f 98/169/2 95/164/2 91/160/2
f 95/164/3 100/172/3 93/162/3
f 100/172/6 89/156/6 93/162/6
f 95/164/4 89/157/4 91/159/4
f 92/161/1 94/163/1 96/165/1
f 101/173/7 98/170/7 97/168/7
f 102/174/6 99/171/6 98/170/6
f 103/175/7 100/172/7 99/171/7
f 104/176/6 97/168/6 100/172/6
f 105/177/1 102/174/1 101/173/1
f 107/179/1 102/174/1 106/178/1
f 108/180/1 103/175/1 107/179/1
f 105/177/1 104/176/1 108/180/1
f 105/177/5 110/182/5 106/178/5
f 90/158/2 116/188/2 94/163/2
f 107/179/3 112/184/3 108/180/3
f 90/158/3 114/186/3 113/185/3
f 115/187/6 122/194/6 114/186/6
f 113/185/2 124/196/2 116/188/2
f 109/181/5 118/190/5 110/182/5
f 111/183/3 120/192/3 112/184/3
f 96/165/6 114/186/6 92/161/6
f 108/180/6 109/181/6 105/177/6
f 106/178/2 111/183/2 107/179/2
f 94/163/5 115/187/5 96/165/5
f 122/194/1 117/189/1 121/193/1
f 123/195/1 118/190/1 122/194/1
f 123/195/1 120/192/1 119/191/1
f 121/193/1 120/192/1 124/196/1
f 112/184/6 117/189/6 109/181/6
f 110/182/2 119/191/2 111/183/2
f 116/188/5 123/195/5 115/187/5
f 113/185/3 122/194/3 121/193/3
f 97/166/5 98/169/5 91/160/5
f 98/169/2 99/171/2 95/164/2
f 95/164/3 99/171/3 100/172/3
f 100/172/6 97/167/6 89/156/6
f 95/164/4 93/162/4 89/157/4
f 92/161/1 90/158/1 94/163/1
f 101/173/7 102/174/7 98/170/7
f 102/174/6 103/175/6 99/171/6
f 103/175/7 104/176/7 100/172/7
f 104/176/6 101/173/6 97/168/6
f 105/177/1 106/178/1 102/174/1
f 107/179/1 103/175/1 102/174/1
f 108/180/1 104/176/1 103/175/1
f 105/177/1 101/173/1 104/176/1
f 105/177/5 109/181/5 110/182/5
f 90/158/2 113/185/2 116/188/2
f 107/179/3 111/183/3 112/184/3
f 90/158/3 92/161/3 114/186/3
f 115/187/6 123/195/6 122/194/6
f 113/185/2 121/193/2 124/196/2
f 109/181/5 117/189/5 118/190/5
f 111/183/3 119/191/3 120/192/3
f 96/165/6 115/187/6 114/186/6
f 108/180/6 112/184/6 109/181/6
f 106/178/2 110/182/2 111/183/2
f 94/163/5 116/188/5 115/187/5
f 122/194/1 118/190/1 117/189/1
f 123/195/1 119/191/1 118/190/1
f 123/195/1 124/196/1 120/192/1
f 121/193/1 117/189/1 120/192/1
f 112/184/6 120/192/6 117/189/6
f 110/182/2 118/190/2 119/191/2
f 116/188/5 124/196/5 123/195/5
f 113/185/3 114/186/3 122/194/3
usemtl Material.002
f 13/19/1 11/17/1 9/15/1
f 11/17/2 16/27/2 12/18/2
f 15/25/3 14/22/3 16/26/3
f 10/16/4 16/28/4 14/21/4
f 9/15/5 12/18/5 10/16/5
f 13/20/6 10/16/6 14/22/6
f 13/19/1 15/23/1 11/17/1
f 11/17/2 15/24/2 16/27/2
f 15/25/3 13/20/3 14/22/3
f 10/16/4 12/18/4 16/28/4
f 9/15/5 11/17/5 12/18/5
f 13/20/6 9/15/6 10/16/6
usemtl Material.003
f 21/33/1 19/31/1 17/29/1
f 19/31/2 24/41/2 20/32/2
f 23/39/3 22/36/3 24/40/3
f 18/30/4 24/42/4 22/35/4
f 17/29/5 20/32/5 18/30/5
f 21/34/6 18/30/6 22/36/6
f 21/33/1 23/37/1 19/31/1
f 19/31/2 23/38/2 24/41/2
f 23/39/3 21/34/3 22/36/3
f 18/30/4 20/32/4 24/42/4
f 17/29/5 19/31/5 20/32/5
f 21/34/6 17/29/6 18/30/6
usemtl Material.004
f 29/47/1 27/45/1 25/43/1
f 27/45/2 32/55/2 28/46/2
f 31/53/3 30/50/3 32/54/3
f 26/44/4 32/56/4 30/49/4
f 25/43/5 28/46/5 26/44/5
f 29/48/6 26/44/6 30/50/6
f 29/47/1 31/51/1 27/45/1
f 27/45/2 31/52/2 32/55/2
f 31/53/3 29/48/3 30/50/3
f 26/44/4 28/46/4 32/56/4
f 25/43/5 27/45/5 28/46/5
f 29/48/6 25/43/6 26/44/6
usemtl Material.005
f 37/61/1 35/59/1 33/57/1
f 35/59/2 40/69/2 36/60/2
f 39/67/3 38/64/3 40/68/3
f 34/58/4 40/70/4 38/63/4
f 33/57/5 36/60/5 34/58/5
f 37/62/6 34/58/6 38/64/6
f 37/61/1 39/65/1 35/59/1
f 35/59/2 39/66/2 40/69/2
f 39/67/3 37/62/3 38/64/3
f 34/58/4 36/60/4 40/70/4
f 33/57/5 35/59/5 36/60/5
f 37/62/6 33/57/6 34/58/6
usemtl Material.006
f 45/75/1 43/73/1 41/71/1
f 43/73/2 48/83/2 44/74/2
f 47/81/3 46/78/3 48/82/3
f 42/72/4 48/84/4 46/77/4
f 41/71/5 44/74/5 42/72/5
f 45/76/6 42/72/6 46/78/6
f 45/75/1 47/79/1 43/73/1
f 43/73/2 47/80/2 48/83/2
f 47/81/3 45/76/3 46/78/3
f 42/72/4 44/74/4 48/84/4
f 41/71/5 43/73/5 44/74/5
f 45/76/6 41/71/6 42/72/6
usemtl Material.007
f 53/89/1 51/87/1 49/85/1
f 51/87/2 56/97/2 52/88/2
f 55/95/3 54/92/3 56/96/3
f 50/86/4 56/98/4 54/91/4
f 49/85/5 52/88/5 50/86/5
f 53/90/6 50/86/6 54/92/6
f 53/89/1 55/93/1 51/87/1
f 51/87/2 55/94/2 56/97/2
f 55/95/3 53/90/3 54/92/3
f 50/86/4 52/88/4 56/98/4
f 49/85/5 51/87/5 52/88/5
f 53/90/6 49/85/6 50/86/6
usemtl Material.008
f 61/103/1 59/101/1 57/99/1
f 59/101/2 64/111/2 60/102/2
f 63/109/3 62/106/3 64/110/3
f 58/100/4 64/112/4 62/105/4
f 57/99/5 60/102/5 58/100/5
f 61/104/6 58/100/6 62/106/6
f 61/103/1 63/107/1 59/101/1
f 59/101/2 63/108/2 64/111/2
f 63/109/3 61/104/3 62/106/3
f 58/100/4 60/102/4 64/112/4
f 57/99/5 59/101/5 60/102/5
f 61/104/6 57/99/6 58/100/6
usemtl Material.009
f 69/117/1 67/115/1 65/113/1
f 67/115/2 72/125/2 68/116/2
f 71/123/3 70/120/3 72/124/3
f 66/114/4 72/126/4 70/119/4
f 65/113/5 68/116/5 66/114/5
f 69/118/6 66/114/6 70/120/6
f 69/117/1 71/121/1 67/115/1
f 67/115/2 71/122/2 72/125/2
f 71/123/3 69/118/3 70/120/3
f 66/114/4 68/116/4 72/126/4
f 65/113/5 67/115/5 68/116/5
f 69/118/6 65/113/6 66/114/6
usemtl Material.010
f 77/131/1 75/129/1 73/127/1
f 75/129/2 80/139/2 76/130/2
f 79/137/3 78/134/3 80/138/3
f 74/128/4 80/140/4 78/133/4
f 73/127/5 76/130/5 74/128/5
f 77/132/6 74/128/6 78/134/6
f 77/131/1 79/135/1 75/129/1
f 75/129/2 79/136/2 80/139/2
f 79/137/3 77/132/3 78/134/3
f 74/128/4 76/130/4 80/140/4
f 73/127/5 75/129/5 76/130/5
f 77/132/6 73/127/6 74/128/6
usemtl Material.011
f 85/145/1 83/143/1 81/141/1
f 83/143/2 88/153/2 84/144/2
f 87/151/3 86/148/3 88/152/3
f 82/142/4 88/154/4 86/147/4
f 81/141/5 84/144/5 82/142/5
f 85/146/6 82/142/6 86/148/6
f 85/145/1 87/149/1 83/143/1
f 83/143/2 87/150/2 88/153/2
f 87/151/3 85/146/3 86/148/3
f 82/142/4 84/144/4 88/154/4
f 81/141/5 83/143/5 84/144/5
f 85/146/6 81/141/6 82/142/6
